<svg width="357" height="340" viewBox="0 0 357 340" fill="none" xmlns="http://www.w3.org/2000/svg">
<path d="M171.69 23.8629C192.015 21.8957 210.061 36.8388 211.917 57.1738C213.774 77.5086 198.733 95.4728 178.388 97.2191C158.199 98.9518 140.403 84.0511 138.56 63.8718C136.718 43.6926 151.521 25.8151 171.69 23.8629Z" fill="#F68321"/>
<path d="M260.357 63.5198C279.035 61.7458 295.635 75.401 297.495 94.0705C299.355 112.74 285.777 129.403 267.117 131.35C248.333 133.309 231.538 119.622 229.665 100.83C227.792 82.0378 241.557 65.3055 260.357 63.5198Z" fill="#FCAE1A"/>
<path d="M293.343 154.363C310.388 152.208 325.968 164.245 328.18 181.283C330.395 198.32 318.413 213.94 301.383 216.214C284.27 218.5 268.555 206.445 266.33 189.323C264.105 172.201 276.213 156.529 293.343 154.363Z" fill="#FCAE1A"/>
<path d="M250.453 230.178C266.013 228.526 279.973 239.79 281.645 255.35C283.32 270.907 272.075 284.882 256.518 286.577C240.93 288.277 226.922 277.005 225.246 261.415C223.569 245.825 234.86 231.833 250.453 230.178Z" fill="#84C354"/>
<path d="M166.287 260.325C180.326 258.215 193.401 267.935 195.422 281.987C197.444 296.04 187.639 309.052 173.573 310.985C159.634 312.9 146.764 303.202 144.761 289.275C142.758 275.347 152.373 262.417 166.287 260.325Z" fill="#84C354"/>
<path d="M94.5116 230.374C107.036 228.965 118.318 238.009 119.667 250.54C121.016 263.073 111.917 274.31 99.3793 275.598C86.9273 276.878 75.7821 267.855 74.4426 255.408C73.1028 242.963 82.0723 231.774 94.5116 230.374Z" fill="#296DB7"/>
<path d="M59.8609 163.43C70.7882 162.449 80.4549 170.481 81.4927 181.403C82.5304 192.325 74.5494 202.034 63.6329 203.129C52.6354 204.232 42.8392 196.178 41.7937 185.175C40.7482 174.172 48.8524 164.418 59.8609 163.43Z" fill="#296DB7"/>
<path d="M79.6885 93.0329C89.1475 92.5829 97.1843 99.8779 97.6495 109.336C98.1148 118.794 90.833 126.843 81.3755 127.324C71.8963 127.805 63.825 120.503 63.3588 111.023C62.8923 101.543 70.2078 93.4837 79.6885 93.0329Z" fill="#0FA6DF"/>
</svg>
