<svg width="605" height="563" viewBox="0 0 605 563" fill="none" xmlns="http://www.w3.org/2000/svg">
<path d="M123.993 218.268C110.395 190.128 96.3504 163.392 85.744 135.065C79.8003 119.191 75.4065 102.845 70.5898 86.5403C77.3824 80.891 83.6529 75.4026 90.2034 70.2938C109.958 54.8922 130.11 40.0401 151.567 27.0639C154.959 25.0071 158.753 23.4157 162.549 22.2376C198.999 10.9956 236.545 5.63689 274.376 1.95467C281.81 1.22656 289.291 0.83725 296.725 0.223351C305.741 -0.51379 314.51 0.569691 323.103 3.53351C341.543 23.8666 355.011 47.6901 369.385 70.8744C374.998 79.922 380.758 88.8905 385.973 98.1713C390.581 106.354 394.528 114.921 399.127 124.041C402.122 122.46 405.945 121.046 409.052 118.694C416.229 113.221 423.832 109.259 432.971 108.181C436.866 107.724 440.594 105.875 444.375 104.579C446.761 103.764 449.104 102.825 451.479 101.936C452.824 101.43 454.397 101.219 455.479 100.38C462.803 94.7709 471.7 93.3935 480.186 90.8081C485.619 89.1499 490.853 86.8893 496.65 84.7194C500.244 87.3942 503.81 89.7635 507.048 92.4963C527.711 109.94 544.289 130.857 558.555 153.659C572.337 175.678 583.592 198.991 593.464 222.972C597.285 232.249 600.428 241.807 604.09 251.816C588.98 265.999 572.698 278.224 556.327 290.342C539.94 302.471 523.446 314.446 506.458 326.888C515.966 332.959 526.326 336.456 536.141 340.991C546.328 345.699 556.636 350.137 566.934 354.559C576.947 358.856 587.024 363.012 596.955 367.176C596.791 395.894 565.874 480.557 544.549 510.321C518.646 502.61 494.46 489.997 469.045 479.085C468.495 481.403 467.805 483.233 467.66 485.106C466.77 497.138 466.682 509.275 465.021 521.196C463.518 531.972 460.441 542.546 457.827 553.144C457.084 556.157 455.505 558.971 454.402 561.642C408.046 567.232 259.267 545.18 217.511 525.736C217.581 509.836 217.657 493.611 217.722 476.713C210.278 478.207 203.517 479.28 196.901 480.943C177.262 485.894 157.288 488.117 137.091 488.337C124.087 488.484 111.308 490.08 98.5418 492.405C90.6265 493.844 82.6068 494.704 74.6155 495.684C72.6662 495.919 70.66 495.614 68.4789 495.566C59.3881 481.736 51.3006 467.517 44.1341 452.777C24.3612 412.139 11.0413 369.445 3.22364 324.98C2.86713 323.002 2.64791 320.986 2.11048 319.05C1.58014 317.145 0.714911 315.331 0.000449672 313.482C4.74295 296.37 36.987 224.237 43.76 215.85C70.1648 216.646 96.8519 217.453 124.006 218.271L123.993 218.268Z" fill="#FCC6AD"/>
</svg>
