<svg width="75" height="75" viewBox="0 0 75 75" fill="none" xmlns="http://www.w3.org/2000/svg">
<path fill-rule="evenodd" clip-rule="evenodd" d="M29.587 0C23.7597 0 19.0359 4.62106 19.0359 10.3214V17.4671H37.2974V19.4519H10.9197C5.09252 19.4519 0.368652 24.073 0.368652 29.7733V45.2556C0.368652 50.9559 5.09252 55.5769 10.9197 55.5769H17.0069V46.8435C17.0069 41.1432 21.7308 36.5219 27.558 36.5219H47.0368C51.9676 36.5219 55.9646 32.6119 55.9646 27.7886V10.3214C55.9646 4.62106 51.2409 0 45.4136 0H29.587ZM27.1522 12.7033C29.1693 12.7033 30.8044 11.1037 30.8044 9.13051C30.8044 7.1573 29.1693 5.55769 27.1522 5.55769C25.1349 5.55769 23.4998 7.1573 23.4998 9.13051C23.4998 11.1037 25.1349 12.7033 27.1522 12.7033Z" fill="url(#paint0_linear_7011_4548)"/>
<path fill-rule="evenodd" clip-rule="evenodd" d="M45.4131 75.0001C51.2403 75.0001 55.9643 70.3791 55.9643 64.6788V57.5331H37.7027V55.5483H64.0805C69.9078 55.5483 74.6314 50.9271 74.6314 45.2267V29.7445C74.6314 24.0442 69.9078 19.4232 64.0805 19.4232H57.9933V28.1566C57.9933 33.8572 53.2693 38.4781 47.4423 38.4781H27.9633C23.0325 38.4781 19.0355 42.3882 19.0355 47.2115V64.6788C19.0355 70.3791 23.7595 75.0001 29.5865 75.0001H45.4131ZM47.8481 62.2969C45.8308 62.2969 44.1957 63.8963 44.1957 65.8696C44.1957 67.8429 45.8308 69.4423 47.8481 69.4423C49.8652 69.4423 51.5003 67.8429 51.5003 65.8696C51.5003 63.8963 49.8652 62.2969 47.8481 62.2969Z" fill="url(#paint1_linear_7011_4548)"/>
<defs>
<linearGradient id="paint0_linear_7011_4548" x1="37.5002" y1="0" x2="37.5002" y2="75.0001" gradientUnits="userSpaceOnUse">
<stop stop-color="#327EBD"/>
<stop offset="1" stop-color="#1565A7"/>
</linearGradient>
<linearGradient id="paint1_linear_7011_4548" x1="46.8336" y1="19.4232" x2="46.8336" y2="75.0001" gradientUnits="userSpaceOnUse">
<stop stop-color="#FFDA4B"/>
<stop offset="1" stop-color="#F9C600"/>
</linearGradient>
</defs>
</svg>
