<svg width="75" height="75" viewBox="0 0 75 75" fill="none" xmlns="http://www.w3.org/2000/svg">
<path d="M59.5244 21.9345L53.9403 27.504C63.1093 36.6491 63.1093 51.3638 53.9403 60.3713C44.7714 69.5164 30.0183 69.5164 20.9873 60.3713C11.8183 51.2262 11.8183 36.5116 20.9873 27.504L35.5335 12.9957L37.6017 10.9329V0L15.6789 21.8657C3.47665 34.0362 3.47665 53.7016 15.6789 65.8721C27.8812 78.0426 47.5979 78.0426 59.5933 65.8721C71.7267 53.7016 71.7267 34.1737 59.5244 21.9345Z" fill="#EE4C2C"/>
<path d="M48.563 20.628C50.8094 20.628 52.6305 18.8118 52.6305 16.5713C52.6305 14.3307 50.8094 12.5144 48.563 12.5144C46.3167 12.5144 44.4956 14.3307 44.4956 16.5713C44.4956 18.8118 46.3167 20.628 48.563 20.628Z" fill="#EE4C2C"/>
</svg>
