<svg width="22" height="22" viewBox="0 0 22 22" fill="none" xmlns="http://www.w3.org/2000/svg">
<path d="M4.93836 13.4886C5.33696 13.5116 5.88833 13.4958 6.29892 13.4969C6.70317 13.498 7.26192 13.5122 7.65572 13.4863C7.5845 13.6299 7.50757 13.7863 7.42427 13.923C6.95063 14.7003 6.52219 15.5048 6.04184 16.2781C6.48433 16.298 6.99373 16.2871 7.44196 16.2872L9.82563 16.2876C11.7067 16.2877 13.6459 16.3115 15.5231 16.2789C15.4575 16.1886 15.3806 16.0669 15.3285 15.9686C14.8869 15.1366 14.3391 14.3397 13.9306 13.4924C14.8312 13.5088 15.7454 13.4903 16.6491 13.5007C17.2231 14.5569 17.8835 15.6638 18.492 16.7035L19.6111 18.6495L1.97461 18.6502C2.30777 18.0197 2.64565 17.4662 3.00021 16.855L4.93836 13.4886Z" fill="#3D404C"/>
<path d="M19.101 3.35519C19.9269 3.35231 20.7529 3.3542 21.5787 3.36084C21.4598 3.5325 21.3285 3.78629 21.2207 3.97192L20.4007 5.39575L17.3771 10.6599C17.0754 11.1735 16.6569 12.0096 16.3225 12.4605L2.88961 12.4606L1.33007 12.4593C1.11085 12.4593 0.631233 12.4478 0.435425 12.4861C0.761616 11.8837 1.23563 11.0141 1.60518 10.4334L15.0004 10.4399C15.5516 9.46085 16.116 8.48935 16.6937 7.52569C16.8962 7.18179 17.0838 6.82238 17.2871 6.48022C17.9034 5.44302 18.5105 4.4076 19.101 3.35519Z" fill="#544A87"/>
<path d="M10.7402 3.36353C10.8423 3.39998 11.5804 4.75472 11.6943 4.95113C12.2057 5.81605 12.7099 6.6852 13.2069 7.55852C13.5503 8.16234 13.9663 8.82694 14.2815 9.42736C13.7561 9.44857 13.1849 9.42663 12.6528 9.43578C12.3329 9.44128 11.9371 9.44588 11.6217 9.41589C11.5819 9.40837 11.5384 9.4042 11.5172 9.36426C11.29 8.93563 11.0557 8.54367 10.7785 8.14502L10.7572 8.11333C10.7225 8.13422 10.1662 9.25297 10.0315 9.39449C9.82966 9.4635 7.68038 9.43535 7.3136 9.4297C7.67482 8.71101 8.04961 8.10655 8.44692 7.42313L9.73893 5.16222C10.0585 4.60788 10.496 3.94423 10.7402 3.36353Z" fill="#3D404C"/>
<path d="M15.5528 3.35598C16.252 3.33044 17.1615 3.34571 17.8618 3.35871C17.752 3.4874 17.6253 3.72588 17.5354 3.87844C17.3216 4.24015 17.1124 4.60459 16.908 4.97172C16.7716 5.21412 16.6347 5.45157 16.4919 5.69022C16.101 6.34358 15.7396 7.0094 15.35 7.66431C15.2171 7.87447 15.0364 8.18988 14.9282 8.41055C14.8916 8.33307 14.8535 8.26927 14.8088 8.19652C14.4475 7.60955 14.1219 7.00324 13.7728 6.40872C13.9656 6.13215 14.1064 5.81463 14.2851 5.53753C14.7267 4.85248 15.1022 4.01933 15.5528 3.35598Z" fill="#3A83AF"/>
<path d="M12.0566 3.35958C12.7667 3.38489 13.6204 3.35305 14.3519 3.35937C14.1962 3.55668 13.7878 4.29519 13.6177 4.56398C13.4793 4.81096 13.3364 5.07786 13.1827 5.31402C13.1188 5.18833 13.0048 5.02948 12.9306 4.90109C12.659 4.43131 12.2579 3.85529 12.0566 3.35958Z" fill="#D46161"/>
</svg>
