<svg width="21" height="21" viewBox="0 0 21 21" fill="none" xmlns="http://www.w3.org/2000/svg">
<path d="M18.9703 5.53234V15.3694L10.4918 20.2634L1.96411 15.3531V5.53234L10.4918 0.589233L18.9703 5.53234ZM17.7264 6.23615L10.4918 2.02961L3.20807 6.23615V14.6165L10.4918 18.8067L17.7264 14.6165V6.23615Z" fill="#1D3867"/>
<path d="M12.8816 11.343C12.8816 11.343 10.2954 9.6407 9.44432 7.69292C9.44432 6.69448 8.64229 5.89246 7.64385 5.89246C6.64541 5.89246 5.84338 6.69448 5.84338 7.69292C5.84338 8.69136 6.64541 9.49339 7.64385 9.49339C7.64385 9.49339 10.3773 10.7537 11.0811 13.1434C11.0811 14.1419 11.8831 14.9439 12.8816 14.9439C13.88 14.9439 14.682 14.1419 14.682 13.1434C14.6984 12.145 13.88 11.343 12.8816 11.343Z" fill="#FCDC2E"/>
<path d="M10.901 7.20185C11.6048 6.43256 12.7997 6.38345 13.569 7.07091C14.3383 7.75836 14.3874 8.96958 13.6999 9.73887" fill="#1D3867"/>
<path d="M9.68976 13.6181C8.93683 14.3383 7.74198 14.3219 7.02179 13.569C6.3016 12.816 6.31797 11.6212 7.07089 10.901" fill="#1D3867"/>
</svg>
