<svg width="22" height="22" viewBox="0 0 22 22" fill="none" xmlns="http://www.w3.org/2000/svg">
<path d="M11 20.9C16.4676 20.9 20.9 16.4676 20.9 11C20.9 5.53236 16.4676 1.09998 11 1.09998C5.53236 1.09998 1.09998 5.53236 1.09998 11C1.09998 16.4676 5.53236 20.9 11 20.9Z" fill="#CE0E2D"/>
<path d="M12.5845 6.36694H10.8078V6.88539H12.5845V6.36694Z" fill="white"/>
<path d="M12.4355 15.1191C10.743 14.6882 9.49523 13.2478 9.49523 11.4014C9.49523 9.9866 10.3222 8.84278 11.544 8.2013V7.50619C9.78805 8.08118 8.52903 9.56561 8.52903 11.4014C8.52903 12.3093 8.76571 13.0185 9.17807 13.6538C8.09242 13.463 7.62448 12.7056 7.62448 11.4014V6.36426H5.67603V6.88289H6.60724V11.4014C6.60724 13.2118 7.78728 14.1519 9.58358 14.1817C10.2705 14.9454 11.2426 15.4784 12.347 15.6359L12.4355 15.1191Z" fill="white"/>
<path d="M11.5434 11.4014C11.5434 12.1128 11.6142 12.675 12.063 13.1702C12.4709 12.6686 12.5861 12.1985 12.5861 11.4014L12.5823 7.3041C12.7723 7.28135 12.9655 7.26969 13.1617 7.26969C13.9618 7.26969 14.7673 7.35725 15.727 7.84006L15.792 7.45106L16.324 7.55446L16.011 9.37791L15.564 9.29017C15.5251 8.47098 14.8044 7.75633 13.6029 7.75633V11.4014C13.6029 12.4642 13.2409 13.142 12.5234 13.6713C13.3721 14.4656 14.7612 14.3844 15.4454 14.0352L15.5732 14.2262C15.0662 14.571 14.3715 14.7182 13.7692 14.7182C12.0142 14.7182 10.576 13.2638 10.576 11.4014C10.576 10.5113 10.9484 9.79564 11.5439 9.21955C11.5439 9.21955 11.5434 11.0224 11.5434 11.4014Z" fill="white"/>
</svg>
