<svg width="75" height="75" viewBox="0 0 75 75" fill="none" xmlns="http://www.w3.org/2000/svg">
<path d="M39.7989 22.631L39.7935 31.7163C39.8289 44.1149 29.8299 54.23 17.6121 54.2111C12.7589 54.2017 8.3409 52.7062 4.75977 50.0913C11.1865 61.7744 23.5073 69.6676 37.5128 69.6808C57.8593 69.6701 74.6718 52.919 74.9848 32.3215L74.9805 32.2357C74.999 31.7611 74.9773 22.9786 75 22.5899C74.9706 12.8173 67.0694 4.78353 57.408 4.80571C47.7015 4.78713 39.7651 12.7725 39.7989 22.631Z" fill="url(#paint0_linear_7011_4547)"/>
<path d="M17.5914 15.9206C7.8917 15.9206 0 23.9032 0 33.715C0 43.5259 7.8917 51.5084 17.5914 51.5084C27.2916 51.5084 35.1828 43.5259 35.1828 33.715C35.1828 23.9032 27.2916 15.9206 17.5914 15.9206Z" fill="#0B23A9"/>
<defs>
<linearGradient id="paint0_linear_7011_4547" x1="17.5877" y1="69.0632" x2="58.0397" y2="21.7619" gradientUnits="userSpaceOnUse">
<stop stop-color="#09DBF0"/>
<stop offset="1" stop-color="#0B23A9"/>
</linearGradient>
</defs>
</svg>
