<svg width="124" height="124" viewBox="0 0 124 124" fill="none" xmlns="http://www.w3.org/2000/svg">
<path fill-rule="evenodd" clip-rule="evenodd" d="M124 62C124 47.7775 120.414 34.5229 114.229 23.3779C100.402 15.0624 82.0879 10 62 10C41.9122 10 23.5979 15.0624 9.77114 23.3779C3.58639 34.5229 0 47.7775 0 62C0 76.2225 3.58639 89.4771 9.77114 100.622C23.5979 108.938 41.9122 114 62 114C82.0879 114 100.402 108.938 114.229 100.622C120.414 89.4771 124 76.2225 124 62Z" fill="#3B302F"/>
<path fill-rule="evenodd" clip-rule="evenodd" d="M62 114C82.0879 114 100.402 108.938 114.229 100.622C120.414 89.4771 124 76.2225 124 62C124 47.7775 120.414 34.5229 114.229 23.3779C100.402 15.0624 82.0879 10 62 10C41.9122 10 23.5979 15.0624 9.77114 23.3779C3.58639 34.5229 0 47.7775 0 62C0 76.2225 3.58639 89.4771 9.77114 100.622C23.5979 108.938 41.9122 114 62 114Z" fill="#3B302F"/>
<path d="M39.5199 89.01C34.6718 89.01 30.4858 87.9551 26.962 85.8453C23.4606 83.7355 20.7559 80.7839 18.8481 76.9907C16.9627 73.1975 16.02 68.7871 16.02 63.7594C16.02 58.7317 16.9627 54.3213 18.8481 50.5281C20.7559 46.7349 23.4606 43.7834 26.962 41.6736C30.4858 39.5637 34.6718 38.5088 39.5199 38.5088C45.0863 38.5088 49.7549 39.8892 53.5256 42.6499C57.3188 45.4106 59.9898 49.1477 61.5385 53.8612L52.3136 56.4199C51.4158 53.4796 49.9007 51.2015 47.7685 49.5854C45.6362 47.9469 42.8867 47.1277 39.5199 47.1277C36.445 47.1277 33.875 47.8123 31.8101 49.1814C29.7676 50.5505 28.2301 52.4808 27.1977 54.9722C26.1652 57.4636 25.6489 60.3927 25.6489 63.7594C25.6489 67.1262 26.1652 70.0552 27.1977 72.5466C28.2301 75.038 29.7676 76.9683 31.8101 78.3374C33.875 79.7066 36.445 80.3912 39.5199 80.3912C42.8867 80.3912 45.6362 79.5719 47.7685 77.9334C49.9007 76.2949 51.4158 74.0168 52.3136 71.0989L61.5385 73.6577C59.9898 78.3711 57.3188 82.1082 53.5256 84.8689C49.7549 87.6297 45.0863 89.01 39.5199 89.01ZM67.9416 88V86.8553L90.9702 48.0704H69.9617V39.5188H106.996V40.6635L84.102 79.3811H106.323V88H67.9416Z" fill="#F2EDED"/>
</svg>
